<?xml version="1.0" standalone="no"?>
<!DOCTYPE svg PUBLIC "-//W3C//DTD SVG 1.1//EN" "http://www.w3.org/Graphics/SVG/1.1/DTD/svg11.dtd" >
<svg xmlns="http://www.w3.org/2000/svg">
<metadata>Generated by IcoMoon</metadata>
<defs>
<font id="icomoon" horiz-adv-x="1024">
<font-face units-per-em="1024" ascent="960" descent="-64" />
<missing-glyph horiz-adv-x="1024" />
<glyph unicode="&#x20;" horiz-adv-x="512" d="" />
<glyph unicode="&#xe900;" glyph-name="android" d="M391.429 684q9.143 0 15.714 6.571t6.571 15.714-6.571 15.714-15.714 6.571-15.429-6.571-6.286-15.714 6.286-15.714 15.429-6.571zM632.571 684q9.143 0 15.429 6.571t6.286 15.714-6.286 15.714-15.429 6.571-15.714-6.571-6.571-15.714 6.571-15.714 15.714-6.571zM168.571 578.857q24 0 41.143-17.143t17.143-41.143v-245.714q0-24.571-16.857-41.714t-41.429-17.143-41.714 17.143-17.143 41.714v245.714q0 24 17.143 41.143t41.714 17.143zM774.286 568v-380.571q0-26.286-18.286-44.571t-44-18.286h-42.857v-129.714q0-24.571-17.143-41.714t-41.714-17.143-41.714 17.143-17.143 41.714v129.714h-78.857v-129.714q0-24.571-17.143-41.714t-41.714-17.143q-24 0-41.143 17.143t-17.143 41.714l-0.571 129.714h-42.286q-26.286 0-44.571 18.286t-18.286 44.571v380.571h524.571zM641.714 799.429q61.143-31.429 97.714-87.714t36.571-123.143h-528.571q0 66.857 36.571 123.143t98.286 87.714l-40.571 74.857q-4 7.429 2.857 11.429 7.429 3.429 11.429-3.429l41.143-75.429q54.286 24 114.857 24t114.857-24l41.143 75.429q4 6.857 11.429 3.429 6.857-4 2.857-11.429zM914.286 520.571v-245.714q0-24.571-17.143-41.714t-41.714-17.143q-24 0-41.143 17.143t-17.143 41.714v245.714q0 24.571 17.143 41.429t41.143 16.857q24.571 0 41.714-16.857t17.143-41.429z" />
<glyph unicode="&#xe901;" glyph-name="apple" d="M905.714 265.714q-22.286-71.429-70.286-142.857-73.714-112-146.857-112-28 0-80 18.286-49.143 18.286-86.286 18.286-34.857 0-81.143-18.857-46.286-19.429-75.429-19.429-86.857 0-172 148-84 149.143-84 287.429 0 130.286 64.571 213.714 64 82.286 162.286 82.286 41.143 0 101.143-17.143 59.429-17.143 78.857-17.143 25.714 0 81.714 19.429 58.286 19.429 98.857 19.429 68 0 121.714-37.143 29.714-20.571 59.429-57.143-45.143-38.286-65.143-67.429-37.143-53.714-37.143-118.286 0-70.857 39.429-127.429t90.286-72zM690.857 936q0-34.857-16.571-77.714-17.143-42.857-53.143-78.857-30.857-30.857-61.714-41.143-21.143-6.286-59.429-9.714 1.714 85.143 44.571 146.857 42.286 61.143 142.857 84.571 0.571-1.714 1.429-6.286t1.429-6.286q0-2.286 0.286-5.714t0.286-5.714z" />
<glyph unicode="&#xe902;" glyph-name="facebook" d="M767.429 953.143v-150.857h-89.714q-49.143 0-66.286-20.571t-17.143-61.714v-108h167.429l-22.286-169.143h-145.143v-433.714h-174.857v433.714h-145.714v169.143h145.714v124.571q0 106.286 59.429 164.857t158.286 58.571q84 0 130.286-6.857z" />
<glyph unicode="&#xe903;" glyph-name="facebook-f" d="M767.429 953.143v-150.857h-89.714q-49.143 0-66.286-20.571t-17.143-61.714v-108h167.429l-22.286-169.143h-145.143v-433.714h-174.857v433.714h-145.714v169.143h145.714v124.571q0 106.286 59.429 164.857t158.286 58.571q84 0 130.286-6.857z" />
<glyph unicode="&#xe904;" glyph-name="facebook-official" d="M902.286 886.857q20 0 34.286-14.286t14.286-34.286v-780.571q0-20-14.286-34.286t-34.286-14.286h-223.429v340h113.714l17.143 132.571h-130.857v84.571q0 32 13.429 48t52.286 16l69.714 0.571v118.286q-36 5.143-101.714 5.143-77.714 0-124.286-45.714t-46.571-129.143v-97.714h-114.286v-132.571h114.286v-340h-420q-20 0-34.286 14.286t-14.286 34.286v780.571q0 20 14.286 34.286t34.286 14.286h780.571z" />
<glyph unicode="&#xe905;" glyph-name="facebook-square" d="M786.286 886.857q68 0 116.286-48.286t48.286-116.286v-548.571q0-68-48.286-116.286t-116.286-48.286h-107.429v340h113.714l17.143 132.571h-130.857v84.571q0 32 13.429 48t52.286 16l69.714 0.571v118.286q-36 5.143-101.714 5.143-77.714 0-124.286-45.714t-46.571-129.143v-97.714h-114.286v-132.571h114.286v-340h-304q-68 0-116.286 48.286t-48.286 116.286v548.571q0 68 48.286 116.286t116.286 48.286h548.571z" />
<glyph unicode="&#xe906;" glyph-name="google" d="M512 510.857h414.286q6.857-38.286 6.857-73.143 0-124-52-221.429t-148.286-152.286-220.857-54.857q-89.714 0-170.857 34.571t-140 93.429-93.429 140-34.571 170.857 34.571 170.857 93.429 140 140 93.429 170.857 34.571q171.429 0 294.286-114.857l-119.429-114.857q-70.286 68-174.857 68-73.714 0-136.286-37.143t-99.143-100.857-36.571-139.143 36.571-139.143 99.143-100.857 136.286-37.143q49.714 0 91.429 13.714t68.571 34.286 46.857 46.857 29.429 49.714 12.857 44.571h-249.143v150.857z" />
<glyph unicode="&#xe907;" glyph-name="google-plus" d="M674.857 438.286q0-118.857-49.714-211.714t-141.714-145.143-210.857-52.286q-85.143 0-162.857 33.143t-133.714 89.143-89.143 133.714-33.143 162.857 33.143 162.857 89.143 133.714 133.714 89.143 162.857 33.143q163.429 0 280.571-109.714l-113.714-109.143q-66.857 64.571-166.857 64.571-70.286 0-130-35.429t-94.571-96.286-34.857-132.857 34.857-132.857 94.571-96.286 130-35.429q47.429 0 87.143 13.143t65.429 32.857 44.857 44.857 28 47.429 12.286 42.286h-237.714v144h395.429q6.857-36 6.857-69.714zM1170.286 508v-120h-119.429v-119.429h-120v119.429h-119.429v120h119.429v119.429h120v-119.429h119.429z" />
<glyph unicode="&#xe908;" glyph-name="google-plus-square" d="M597.143 442.857q0 14.857-3.429 36.571h-206.857v-75.429h124q-1.714-13.714-9.429-28.571t-21.429-30.286-38-25.429-55.143-10q-56.571 0-96.571 40.571t-40 97.714 40 97.714 96.571 40.571q52.571 0 87.429-33.714l59.429 57.714q-61.714 57.143-146.857 57.143-91.429 0-155.429-64.286t-64-155.143 64-155.143 155.429-64.286q94.286 0 152.286 60t58 154.286zM794.286 416.571h62.286v62.857h-62.286v62.857h-62.857v-62.857h-62.857v-62.857h62.857v-62.857h62.857v62.857zM950.857 722.286v-548.571q0-68-48.286-116.286t-116.286-48.286h-548.571q-68 0-116.286 48.286t-48.286 116.286v548.571q0 68 48.286 116.286t116.286 48.286h548.571q68 0 116.286-48.286t48.286-116.286z" />
<glyph unicode="&#xe909;" glyph-name="html5" d="M755.429 618.857l9.143 100h-505.143l26.857-305.143h349.714l-12.571-130.286-112.571-30.286-112 30.286-7.429 80h-100l12.571-158.857 206.857-57.143h2.286v0.571l205.143 56.571 28.571 310.857h-368l-8.571 103.429h385.143zM109.714 886.857h804.571l-73.143-821.714-330.286-92.571-328 92.571z" />
<glyph unicode="&#xe90a;" glyph-name="instagram-square" d="M902.571 838.571c-32.191 32.19-70.953 48.286-116.286 48.286h-548.571c-45.334 0-84.095-16.095-116.286-48.286s-48.286-70.953-48.286-116.286v-548.571c0-45.333 16.095-84.095 48.286-116.286s70.952-48.286 116.286-48.286h548.571c45.333 0 84.095 16.095 116.286 48.286s48.286 70.953 48.286 116.286v548.571c0 45.333-16.095 84.095-48.286 116.286zM677.633 746.51c0 10.59 3.781 19.76 11.34 27.513 7.563 7.751 16.837 11.631 27.797 11.631h98.698c10.974 0 20.237-3.878 27.797-11.631 7.574-7.754 11.354-16.923 11.354-27.513v-93.587c0-10.969-3.78-20.236-11.354-27.797-7.56-7.567-16.823-11.347-27.797-11.347h-98.698c-10.959 0-20.233 3.78-27.797 11.347-7.559 7.561-11.34 16.828-11.34 27.797v93.587zM394.858 568.681c34.222 33.083 75.349 49.634 123.379 49.634 48.398 0 89.71-16.551 123.941-49.634 34.23-33.091 51.331-73.086 51.331-119.977 0-46.885-17.101-86.883-51.331-119.964-34.23-33.101-75.528-49.648-123.941-49.648-48.026 0-89.153 16.563-123.379 49.648-34.23 33.084-51.34 73.079-51.34 119.964 0 46.891 17.109 86.884 51.34 119.977zM854.623 146.347h-0.005v0.003c0-9.826-3.411-18.049-10.213-24.669-6.822-6.617-14.941-9.926-24.401-9.926h-606.384c-9.833 0-18.064 3.31-24.677 9.926-6.624 6.607-9.93 14.843-9.93 24.669v367.594h79.982c-7.563-23.829-11.343-48.605-11.343-74.313 0-72.625 26.469-134.538 79.411-185.791 52.95-51.233 116.669-76.859 191.168-76.859 49.163 0 94.542 11.726 136.154 35.172 41.599 23.459 74.479 55.311 98.698 95.59 24.206 40.277 36.306 84.243 36.306 131.887 0 25.71-3.791 50.478-11.355 74.311h76.587v-367.593z" />
<glyph unicode="&#xe90b;" glyph-name="internet-explorer" d="M1024 424.571q0-32-4-59.429h-657.714q0-83.429 62.571-139.714t147.143-56.286q56.571 0 106 26.571t78 74.571h241.714q-32-90.857-97.429-160.571t-152.857-107.714-183.429-38q-106.857 0-203.429 47.429-130.286-66.286-225.143-66.286-135.429 0-135.429 150.286 0 65.714 25.714 157.143 9.714 34.286 62.286 130.857 113.714 205.714 271.429 346.286-105.143-45.143-244-202.286 36 156.571 162 256.857t286.571 100.286q17.143 0 25.714-0.571 145.714 66.857 247.429 66.857 36.571 0 66.286-7.429t54-23.143 38-43.714 13.714-65.714q0-66.286-42.857-163.429 57.714-104 57.714-222.857zM984 790.286q0 47.429-30.286 75.429t-78.286 28q-61.714 0-145.143-40 69.143-26.857 127.143-75.143t97.429-111.714q29.143 77.143 29.143 123.429zM73.143 83.429q0-49.143 27.714-75.714t76.857-26.571q65.714 0 152 47.429-69.714 41.143-122 104.571t-78.571 140q-56-117.143-56-189.714zM361.143 490.857h416q-2.857 81.143-64.571 135.429t-143.429 54.286q-82.286 0-143.714-54.286t-64.286-135.429z" />
<glyph unicode="&#xe90c;" glyph-name="linkedin" d="M272.571 602.857v-566.286h-188.571v566.286h188.571zM284.571 777.714q0.571-41.714-28.857-69.714t-77.429-28h-1.143q-46.857 0-75.429 28t-28.571 69.714q0 42.286 29.429 70t76.857 27.714 76-27.714 29.143-70zM950.857 361.143v-324.571h-188v302.857q0 60-23.143 94t-72.286 34q-36 0-60.286-19.714t-36.286-48.857q-6.286-17.143-6.286-46.286v-316h-188q1.143 228 1.143 369.714t-0.571 169.143l-0.571 27.429h188v-82.286h-1.143q11.429 18.286 23.429 32t32.286 29.714 49.714 24.857 65.429 8.857q97.714 0 157.143-64.857t59.429-190z" />
<glyph unicode="&#xe90d;" glyph-name="linkedin-square" d="M208.571 152h132v396.571h-132v-396.571zM349.143 670.857q-0.571 29.714-20.571 49.143t-53.143 19.429-54-19.429-20.857-49.143q0-29.143 20.286-48.857t52.857-19.714h0.571q33.714 0 54.286 19.714t20.571 48.857zM683.429 152h132v227.429q0 88-41.714 133.143t-110.286 45.143q-77.714 0-119.429-66.857h1.143v57.714h-132q1.714-37.714 0-396.571h132v221.714q0 21.714 4 32 8.571 20 25.714 34t42.286 14q66.286 0 66.286-89.714v-212zM950.857 722.286v-548.571q0-68-48.286-116.286t-116.286-48.286h-548.571q-68 0-116.286 48.286t-48.286 116.286v548.571q0 68 48.286 116.286t116.286 48.286h548.571q68 0 116.286-48.286t48.286-116.286z" />
<glyph unicode="&#xe90e;" glyph-name="pinterest" d="M950.857 448q0-119.429-58.857-220.286t-159.714-159.714-220.286-58.857q-63.429 0-124.571 18.286 33.714 53.143 44.571 93.714 5.143 19.429 30.857 120.571 11.429-22.286 41.714-38.571t65.143-16.286q69.143 0 123.429 39.143t84 107.714 29.714 154.286q0 65.143-34 122.286t-98.571 93.143-145.714 36q-60 0-112-16.571t-88.286-44-62.286-63.143-38.286-74-12.286-76.571q0-59.429 22.857-104.571t66.857-63.429q17.143-6.857 21.714 11.429 1.143 4 4.571 17.714t4.571 17.143q3.429 13.143-6.286 24.571-29.143 34.857-29.143 86.286 0 86.286 59.714 148.286t156.286 62q86.286 0 134.571-46.857t48.286-121.714q0-97.143-39.143-165.143t-100.286-68q-34.857 0-56 24.857t-13.143 59.714q4.571 20 15.143 53.429t17.143 58.857 6.571 43.143q0 28.571-15.429 47.429t-44 18.857q-35.429 0-60-32.571t-24.571-81.143q0-41.714 14.286-69.714l-56.571-238.857q-9.714-40-7.429-101.143-117.714 52-190.286 160.571t-72.571 241.714q0 119.429 58.857 220.286t159.714 159.714 220.286 58.857 220.286-58.857 159.714-159.714 58.857-220.286z" />
<glyph unicode="&#xe90f;" glyph-name="pinterest-p" d="M146.286 618.857q0 61.714 21.429 116.286t59.143 95.143 86.857 70.286 105.714 44.571 115.429 14.857q90.286 0 168-38t126.286-110.571 48.571-164q0-54.857-10.857-107.429t-34.286-101.143-57.143-85.429-82.857-58.857-108-22q-38.857 0-77.143 18.286t-54.857 50.286q-5.714-22.286-16-64.286t-13.429-54.286-11.714-40.571-14.857-40.571-18.286-35.714-26.286-44.286-35.429-49.429l-8-2.857-5.143 5.714q-8.571 89.714-8.571 107.429 0 52.571 12.286 118t38 164.286 29.714 116q-18.286 37.143-18.286 96.571 0 47.429 29.714 89.143t75.429 41.714q34.857 0 54.286-23.143t19.429-58.571q0-37.714-25.143-109.143t-25.143-106.857q0-36 25.714-59.714t62.286-23.714q31.429 0 58.286 14.286t44.857 38.857 32 54.286 21.714 63.143 11.429 63.429 3.714 56.857q0 98.857-62.571 154t-163.143 55.143q-114.286 0-190.857-74t-76.571-187.714q0-25.143 7.143-48.571t15.429-37.143 15.429-26 7.143-17.429q0-16-8.571-41.714t-21.143-25.714q-1.143 0-9.714 1.714-29.143 8.571-51.714 32t-34.857 54-18.571 61.714-6.286 60.857z" />
<glyph unicode="&#xe910;" glyph-name="pinterest-square" d="M786.286 886.857q68 0 116.286-48.286t48.286-116.286v-548.571q0-68-48.286-116.286t-116.286-48.286h-414.286q48.571 69.714 61.714 120 5.143 19.429 30.286 119.429 12-22.286 42-38.286t64.286-16q103.429 0 168.857 84.286t65.429 213.429q0 48-20 92.857t-55.143 79.429-87.143 55.429-112.571 20.857q-59.429 0-111.143-16.286t-87.429-43.714-61.429-62.571-38-73.143-12.286-75.714q0-58.286 22.571-102.857t66.571-62.857q7.429-2.857 13.429 0t8.286 10.857q5.714 25.143 8.571 34.857 3.429 13.143-6.286 24-28.571 35.429-28.571 85.714 0 85.714 59.143 146.571t154.571 60.857q85.143 0 132.857-46.286t47.714-120q0-96-38.571-163.429t-99.143-67.429q-34.286 0-55.429 24.857t-13.143 59.143q4.571 19.429 15.143 52.857t16.857 58.286 6.286 42.571q0 28-15.143 46.571t-43.143 18.571q-34.857 0-59.143-32.286t-24.286-79.714q0-41.143 13.714-69.143l-56-236.571q-13.714-57.143-4-145.143h-104.571q-68 0-116.286 48.286t-48.286 116.286v548.571q0 68 48.286 116.286t116.286 48.286h548.571z" />
<glyph unicode="&#xe911;" glyph-name="rss" d="M329.143 192q0-45.714-32-77.714t-77.714-32-77.714 32-32 77.714 32 77.714 77.714 32 77.714-32 32-77.714zM621.714 121.714q1.143-16-9.714-27.429-10.286-12-26.857-12h-77.143q-14.286 0-24.571 9.429t-11.429 23.714q-12.571 130.857-105.429 223.714t-223.714 105.429q-14.286 1.143-23.714 11.429t-9.429 24.571v77.143q0 16.571 12 26.857 9.714 9.714 24.571 9.714h2.857q91.429-7.429 174.857-46t148-103.714q65.143-64.571 103.714-148t46-174.857zM914.286 120.571q1.143-15.429-10.286-26.857-10.286-11.429-26.286-11.429h-81.714q-14.857 0-25.429 10t-11.143 24.286q-6.857 122.857-57.714 233.429t-132.286 192-192 132.286-233.429 58.286q-14.286 0.571-24.286 11.143t-10 24.857v81.714q0 16 11.429 26.286 10.286 10.286 25.143 10.286h1.714q149.714-7.429 286.571-68.571t243.143-168q106.857-106.286 168-243.143t68.571-286.571z" />
<glyph unicode="&#xe912;" glyph-name="rss-square" d="M365.714 228.571q0 30.286-21.429 51.714t-51.714 21.429-51.714-21.429-21.429-51.714 21.429-51.714 51.714-21.429 51.714 21.429 21.429 51.714zM566.286 174.857q-7.429 132.571-101.143 226.286t-226.286 101.143q-8 0.571-13.714-5.143t-5.714-13.143v-73.143q0-7.429 4.857-12.571t12.286-5.714q88-6.286 150.857-69.143t69.143-150.857q0.571-7.429 5.714-12.286t12.571-4.857h73.143q7.429 0 13.143 5.714t5.143 13.714zM785.714 174.286q-2.857 88-32 170t-79.714 148.571-117.143 117.143-148.571 79.714-170 32q-8 0.571-13.143-5.143-5.714-5.714-5.714-13.143v-73.143q0-7.429 5.143-12.571t12.571-5.714q116.571-4 216-63.714t159.143-159.143 63.714-216q0.571-7.429 5.714-12.571t12.571-5.143h73.143q7.429 0 13.143 5.714 6.286 5.143 5.143 13.143zM950.857 722.286v-548.571q0-68-48.286-116.286t-116.286-48.286h-548.571q-68 0-116.286 48.286t-48.286 116.286v548.571q0 68 48.286 116.286t116.286 48.286h548.571q68 0 116.286-48.286t48.286-116.286z" />
<glyph unicode="&#xe913;" glyph-name="skype" d="M743.429 352.571q0 28.571-11.143 52.286t-27.714 39.143-41.714 28-47.143 19.429-50 13.143l-59.429 13.714q-17.143 4-25.143 6t-20 6.571-17.143 9.143-9.429 12-4.286 17.143q0 44 82.286 44 24.571 0 44-6.857t30.857-16.286 21.714-19.143 22.857-16.571 27.429-6.857q26.857 0 43.143 18.286t16.286 44q0 31.429-32 56.857t-81.143 38.571-104 13.143q-38.857 0-75.429-8.857t-68.286-26.857-50.857-49.714-19.143-73.429q0-34.857 10.857-60.857t32-43.143 45.714-27.714 58.857-18.571l83.429-20.571q51.429-12.571 64-20.571 18.286-11.429 18.286-34.286 0-22.286-22.857-36.857t-60-14.571q-29.143 0-52.286 9.143t-37.143 22-26 25.714-26.286 22-30.857 9.143q-28.571 0-43.143-17.143t-14.571-42.857q0-52.571 69.714-90t166.286-37.429q41.714 0 80 10.571t70 30.571 50.571 53.429 18.857 75.143zM950.857 228.571q0-90.857-64.286-155.143t-155.143-64.286q-74.286 0-133.714 45.714-44-9.143-85.714-9.143-81.714 0-156.286 31.714t-128.571 85.714-85.714 128.571-31.714 156.286q0 41.714 9.143 85.714-45.714 59.429-45.714 133.714 0 90.857 64.286 155.143t155.143 64.286q74.286 0 133.714-45.714 44 9.143 85.714 9.143 81.714 0 156.286-31.714t128.571-85.714 85.714-128.571 31.714-156.286q0-41.714-9.143-85.714 45.714-59.429 45.714-133.714z" />
<glyph unicode="&#xe914;" glyph-name="twitter" d="M962.286 726.857q-38.286-56-92.571-95.429 0.571-8 0.571-24 0-74.286-21.714-148.286t-66-142-105.429-120.286-147.429-83.429-184.571-31.143q-154.857 0-283.429 82.857 20-2.286 44.571-2.286 128.571 0 229.143 78.857-60 1.143-107.429 36.857t-65.143 91.143q18.857-2.857 34.857-2.857 24.571 0 48.571 6.286-64 13.143-106 63.714t-42 117.429v2.286q38.857-21.714 83.429-23.429-37.714 25.143-60 65.714t-22.286 88q0 50.286 25.143 93.143 69.143-85.143 168.286-136.286t212.286-56.857q-4.571 21.714-4.571 42.286 0 76.571 54 130.571t130.571 54q80 0 134.857-58.286 62.286 12 117.143 44.571-21.143-65.714-81.143-101.714 53.143 5.714 106.286 28.571z" />
<glyph unicode="&#xe915;" glyph-name="twitter-square" d="M804.571 611.429q-32-14.286-69.143-19.429 38.857 22.857 53.143 66.857-37.143-21.714-76.571-29.143-34.857 37.714-87.429 37.714-49.714 0-84.857-35.143t-35.143-84.857q0-16.571 2.857-27.429-73.714 4-138.286 37.143t-109.714 88.571q-16.571-28.571-16.571-60.571 0-65.143 52-100-26.857 0.571-57.143 14.857v-1.143q0-42.857 28.571-76.286t70.286-41.429q-16.571-4.571-29.143-4.571-7.429 0-22.286 2.286 12-36 42.571-59.429t69.429-24q-66.286-51.429-149.143-51.429-14.857 0-28.571 1.714 84.571-53.714 184-53.714 64 0 120 20.286t96 54.286 68.857 78.286 42.857 92.571 14 96.286q0 10.286-0.571 15.429 36 25.714 60 62.286zM950.857 722.286v-548.571q0-68-48.286-116.286t-116.286-48.286h-548.571q-68 0-116.286 48.286t-48.286 116.286v548.571q0 68 48.286 116.286t116.286 48.286h548.571q68 0 116.286-48.286t48.286-116.286z" />
<glyph unicode="&#xe916;" glyph-name="vimeo" d="M976.571 664q-5.714-134.857-189.714-372-190.286-246.286-321.143-246.286-81.143 0-137.143 150.286-25.143 91.429-75.429 275.429-41.143 149.714-89.714 149.714-10.286 0-72.571-43.429l-44 56q13.714 12 61.714 55.143t74.286 66q89.143 78.857 137.714 83.429 54.286 5.143 87.429-31.714t46.286-116.286q25.143-164 37.714-213.143 31.429-142.286 68.571-142.286 29.143 0 88 92 57.714 92 62.286 140.571 7.429 79.429-62.286 79.429-32.571 0-69.143-14.857 68.571 224.571 262.286 218.286 143.429-4.571 134.857-186.286z" />
<glyph unicode="&#xe917;" glyph-name="vimeo-square" d="M811.429 595.429q5.714 123.429-92 126.857-132 4.571-178.286-149.143 25.143 10.857 46.857 10.857 48.571 0 42.286-54.857-2.286-32.571-42.286-95.429t-60-62.857q-24.571 0-46.857 96.571-7.429 30.857-25.714 145.714-17.143 108-91.429 101.143-33.714-4-93.714-57.143l-92.571-82.286 29.714-38.286q43.429 29.714 49.714 29.714 32.571 0 61.143-102.286 8.571-31.429 25.714-94t25.714-94q38.857-102.286 93.714-102.286 89.714 0 218.857 168 125.714 161.714 129.143 253.714zM950.857 722.286v-548.571q0-68-48.286-116.286t-116.286-48.286h-548.571q-68 0-116.286 48.286t-48.286 116.286v548.571q0 68 48.286 116.286t116.286 48.286h548.571q68 0 116.286-48.286t48.286-116.286z" />
<glyph unicode="&#xe918;" glyph-name="whatsapp" d="M636 403.429q7.429 0 55.714-25.143t51.143-30.286q1.143-2.857 1.143-8.571 0-18.857-9.714-43.429-9.143-22.286-40.571-37.429t-58.286-15.143q-32.571 0-108.571 35.429-56 25.714-97.143 67.429t-84.571 105.714q-41.143 61.143-40.571 110.857v4.571q1.714 52 42.286 90.286 13.714 12.571 29.714 12.571 3.429 0 10.286-0.857t10.857-0.857q10.857 0 15.143-3.714t8.857-15.714q4.571-11.429 18.857-50.286t14.286-42.857q0-12-19.714-32.857t-19.714-26.571q0-4 2.857-8.571 19.429-41.714 58.286-78.286 32-30.286 86.286-57.714 6.857-4 12.571-4 8.571 0 30.857 27.714t29.714 27.714zM520 100.571q72.571 0 139.143 28.571t114.571 76.571 76.571 114.571 28.571 139.143-28.571 139.143-76.571 114.571-114.571 76.571-139.143 28.571-139.143-28.571-114.571-76.571-76.571-114.571-28.571-139.143q0-116 68.571-210.286l-45.143-133.143 138.286 44q90.286-59.429 197.143-59.429zM520 890.286q87.429 0 167.143-34.286t137.429-92 92-137.429 34.286-167.143-34.286-167.143-92-137.429-137.429-92-167.143-34.286q-111.429 0-208.571 53.714l-238.286-76.571 77.714 231.429q-61.714 101.714-61.714 222.286 0 87.429 34.286 167.143t92 137.429 137.429 92 167.143 34.286z" />
<glyph unicode="&#xe919;" glyph-name="wikipedia-w" d="M707.429 23.429l-168.571 397.143q-14.286-28-90.571-174.571t-113.429-222.571q-0.571-0.571-15.714-0.286t-15.143 0.857q-46.857 110.286-146 335.429t-148.286 340.571q-12 28.571-38 61.429t-59.143 57.429-58.286 24.571q0 2.857-0.286 13.714t-0.286 15.429h333.143v-28.571q-22.286-1.143-45.429-9.143t-38-24.571-5.714-36.571q14.857-33.714 123.714-285.143t134.571-308.571q17.714 34.857 80 152.286t74.857 141.429q-10.857 22.286-72 160.571t-77.714 168.571q-21.714 39.429-114.857 40.571v28.571l293.143-0.571v-26.857q-34.286-1.143-53.429-14.286t-7.143-39.429q18.857-40 49.714-108.286t49.143-107.143q62.857 122.286 98.857 207.429 13.714 31.429-5.714 45.429t-73.714 15.143q0.571 4 0.571 14.286v13.714q36.571 0 97.429 0.286t102.857 0.571 52.857 0.286v-28q-35.429-1.143-68-18.857t-51.429-46.286l-121.714-252.571q7.429-18.857 72.857-165.714t69.429-156.571l252 581.143q-8 21.714-28.286 35.714t-37.143 18-31.714 4.571v28.571l262.857-2.286 0.571-1.143-0.571-25.143q-79.429-2.286-114.857-82.857-300.571-694.857-319.429-737.714h-28z" />
<glyph unicode="&#xe91a;" glyph-name="youtube-square" d="M600.679 371.18c-13.556 0-26.364-7.531-38.404-22.602v90.942h-37.847v-278.469h37.847v20.335c12.417-15.434 25.235-23.154 38.404-23.154 15.443 0 25.417 7.91 29.925 23.725 2.639 7.906 3.953 21.651 3.953 41.23v82.466c0 19.961-1.328 33.895-3.953 41.802-4.511 15.817-14.486 23.724-29.925 23.724zM597.286 220.36c0-18.451-5.455-27.662-16.384-27.679-6.39 0-12.614 3.017-18.641 9.046v126.526c6.027 6.011 12.249 9.031 18.641 9.031 10.929 0 16.384-9.406 16.384-28.235v-88.689zM247.633 399.979h44.061v-238.927h41.798v238.927h45.189v39.541h-131.047zM503.514 581.308c12.053 0 18.075 9.597 18.075 28.801v88.121c0 19.575-6.022 29.371-18.075 29.371-12.049 0-18.073-9.796-18.073-29.371v-88.121c0-19.197 6.023-28.801 18.073-28.801zM454.374 210.191c-8.283-11.663-16.194-17.502-23.721-17.502-5.274 0-8.1 2.822-8.474 8.47-0.379 0.75-0.569 5.646-0.569 14.691v152.513h-37.278v-163.807c0-14.31 1.13-24.478 3.393-30.49 3.386-10.55 11.298-15.816 23.723-15.816 13.932 0 28.241 8.47 42.926 25.415v-22.601h37.84v207.284h-37.84v-158.156zM737.927 220.642h-0.011c0-3.951-0.099-7.053-0.273-9.316-0.184-2.261-0.286-3.579-0.286-3.954-2.255-9.782-7.909-14.675-16.946-14.675-12.803 0-19.209 9.599-19.209 28.801v36.71h75.129v42.938c0 21.835-3.947 38.023-11.862 48.572-10.156 14.305-24.849 21.469-44.058 21.469s-34.263-7.161-45.193-21.469c-7.529-10.17-11.293-26.372-11.293-48.572v-72.869c0-22.219 3.953-38.417 11.861-48.587 10.927-14.304 26.175-21.469 45.762-21.469 19.959 0 35.017 7.529 45.193 22.597 4.515 6.786 7.354 14.313 8.477 22.594 0.746 5.274 1.124 13.373 1.124 24.294v5.083h-38.415v-12.147zM701.217 308.485c0 19.201 6.218 28.8 18.643 28.8 12.429 0 18.638-9.599 18.638-28.8v-19.215h-37.281v19.215zM902.571 838.571c-32.191 32.19-70.953 48.286-116.286 48.286h-548.571c-45.334 0-84.095-16.095-116.286-48.286s-48.286-70.953-48.286-116.286v-548.571c0-45.333 16.095-84.095 48.286-116.286s70.952-48.286 116.286-48.286h548.571c45.333 0 84.095 16.095 116.286 48.286s48.286 70.953 48.286 116.286v548.571c0 45.333-16.096 84.095-48.286 116.286zM590.508 758.669h37.847v-153.633c0-9.042 0.177-13.938 0.554-14.691 0.379-6.028 3.402-9.036 9.045-9.036 7.531 0 15.446 5.833 23.723 17.506v159.854h37.847v-208.995h-37.859v22.603c-15.438-16.941-29.932-25.422-43.488-25.422-12.043 0-20.142 5.082-24.289 15.25-2.265 6.774-3.379 17.131-3.379 31.070v165.495zM447.6 690.883c0 21.838 3.955 38.223 11.862 49.141 10.165 14.307 24.847 21.465 44.051 21.465 18.457 0 33.149-7.164 44.057-21.465 7.914-10.919 11.869-27.303 11.869-49.141v-73.431c0-22.597-3.954-38.977-11.869-49.143-10.909-14.317-25.601-21.469-44.057-21.469-19.204 0-33.886 7.16-44.051 21.469-7.907 10.919-11.862 27.303-11.862 49.143v73.431zM345.922 830.402l29.94-110.15 28.805 110.15h42.366l-50.83-167.196v-113.533h-41.798v113.533c-4.149 20.712-12.808 50.462-25.986 89.243-8.659 25.984-12.991 38.977-12.991 38.977l-13.563 38.975h44.058zM811.369 148.619c-3.765-16.183-11.768-29.926-24.017-41.234-12.227-11.293-26.437-17.887-42.635-19.776-51.583-5.641-129.165-8.468-232.718-8.468-103.558 0-181.13 2.83-232.717 8.468-16.189 1.89-30.403 8.484-42.645 19.776-12.238 11.308-20.238 25.051-24.004 41.234-7.529 31.637-11.293 80.594-11.293 146.863 0 65.16 3.763 114.095 11.293 146.865 3.77 16.569 11.769 30.41 24.004 41.524 12.242 11.111 26.641 17.611 43.213 19.488 51.204 5.657 128.591 8.476 232.149 8.476 103.937 0 181.513-2.826 232.718-8.476 16.199-1.886 30.489-8.374 42.918-19.488 12.431-11.107 20.537-24.945 24.3-41.524 7.141-31.252 10.725-80.201 10.725-146.865 0.002-66.266-3.766-115.215-11.291-146.863z" />
<glyph unicode="&#xe91b;" glyph-name="blog-square" d="M902.571 838.571c-32.191 32.19-70.953 48.286-116.286 48.286h-548.571c-45.334 0-84.095-16.095-116.286-48.286s-48.286-70.953-48.286-116.286v-548.571c0-45.333 16.095-84.095 48.286-116.286s70.952-48.286 116.286-48.286h548.571c45.333 0 84.095 16.095 116.286 48.286s48.286 70.953 48.286 116.286v548.571c0 45.333-16.096 84.095-48.286 116.286zM380.493 128.036c-101.405 0-185.245 79.124-191.385 180.284-0.366 2.277-0.569 4.637-0.569 6.995v255.993c0 24.638 20.046 44.725 44.725 44.725h1.991c24.64 0 44.726-20.086 44.726-44.725l0.122-251.358c0-55.255 45.011-100.348 100.348-100.348s100.307 45.051 100.307 100.348c0 55.094-44.848 100.104-99.899 100.348h-20.129c-25.249 0-45.822 19.638-45.822 43.791v4.065c0 24.153 20.573 43.79 45.822 43.79h19.679c105.838 0 191.913-86.117 191.913-191.954 0.082-105.836-85.994-191.954-191.83-191.954zM692.767 277.151c-24.389 0-44.159 19.771-44.159 44.159 0 146.668-119.322 265.991-265.991 265.991-24.388 0-44.159 19.771-44.159 44.159s19.771 44.159 44.159 44.159c47.811 0 94.217-9.374 137.926-27.862 42.195-17.847 80.083-43.389 112.607-75.913 32.526-32.525 58.067-70.411 75.914-112.607 18.488-43.709 27.862-90.114 27.862-137.926-0.001-24.388-19.771-44.159-44.159-44.159zM851.93 277.151c-24.389 0-44.158 19.771-44.158 44.159 0 234.431-190.725 425.154-425.155 425.154-24.389 0-44.159 19.771-44.159 44.159s19.771 44.159 44.159 44.159c69.298 0 136.547-13.582 199.879-40.369 30.435-12.873 59.786-28.804 87.238-47.35 27.179-18.362 52.738-39.449 75.962-62.673s44.311-48.782 62.674-75.962c18.546-27.452 34.477-56.803 47.349-87.238 26.788-63.332 40.37-130.581 40.37-199.88-0.001-24.389-19.771-44.159-44.16-44.159z" />
<glyph unicode="&#xe91c;" glyph-name="flickr-square" d="M902.571 838.571c-32.191 32.19-70.953 48.286-116.286 48.286h-548.571c-45.334 0-84.095-16.095-116.286-48.286s-48.286-70.953-48.286-116.286v-548.571c0-45.333 16.095-84.095 48.286-116.286s70.952-48.286 116.286-48.286h548.571c45.333 0 84.095 16.095 116.286 48.286s48.286 70.953 48.286 116.286v548.571c0 45.333-16.095 84.095-48.286 116.286zM436.559 359.911c-23.627-23.631-52.199-35.446-85.734-35.446-33.531 0-62.107 11.816-85.73 35.446-23.62 23.621-35.436 52.193-35.436 85.731 0 33.542 11.808 62.112 35.436 85.734 23.618 23.624 52.199 35.439 85.73 35.439 33.534 0 62.103-11.815 85.734-35.439 23.618-23.62 35.432-52.192 35.432-85.734 0-33.523-11.814-62.11-35.432-85.731zM758.897 359.911c-23.608-23.631-52.19-35.446-85.731-35.446-33.527 0-62.105 11.816-85.742 35.446-23.608 23.621-35.43 52.193-35.43 85.731 0 33.542 11.822 62.112 35.43 85.734 23.637 23.624 52.209 35.439 85.742 35.439 33.528 0 62.109-11.815 85.731-35.439 23.622-23.62 35.445-52.192 35.445-85.734 0-33.523-11.826-62.11-35.445-85.731z" />
<glyph unicode="&#xe91d;" glyph-name="base-square" d="M902.571 838.571c-32.191 32.19-70.953 48.286-116.286 48.286h-548.571c-45.334 0-84.095-16.095-116.286-48.286s-48.286-70.953-48.286-116.286v-548.571c0-45.333 16.095-84.095 48.286-116.286s70.952-48.286 116.286-48.286h548.571c45.333 0 84.095 16.095 116.286 48.286s48.286 70.953 48.286 116.286v548.571c0 45.333-16.095 84.095-48.286 116.286z" />
</font>
</defs>
</svg>
